<svg xmlns="http://www.w3.org/2000/svg" viewBox="0 0 245.5 245.5"><g fill="#FFF"><path d="M.3.1h6v6h-6zM24.1.1h6v6h-6zM48 .1h6v6h-6zM96 .1h6v6h-6zM72.1.1h6v6h-6zM119.9.1h6v6h-6zM144 .1h6v6h-6zM167.9.1h6v6h-6zM191.8.1h6v6h-6zM239.8.1h6v6h-6zM215.9.1h6v6h-6zM.3 24h6v6h-6zM24.1 24h6v6h-6zM48 24h6v6h-6zM96 24h6v6h-6zM72.1 24h6v6h-6zM119.9 24h6v6h-6zM144 24h6v6h-6zM167.9 24h6v6h-6zM191.8 24h6v6h-6zM239.8 24h6v6h-6zM215.9 24h6v6h-6zM.3 47.9h6v6h-6zM24.1 47.9h6v6h-6zM48 47.9h6v6h-6zM96 47.9h6v6h-6zM72.1 47.9h6v6h-6zM119.9 47.9h6v6h-6zM144 47.9h6v6h-6zM167.9 47.9h6v6h-6zM191.8 47.9h6v6h-6zM239.8 47.9h6v6h-6zM215.9 47.9h6v6h-6zM.3 71.8h6v6h-6zM24.1 71.8h6v6h-6zM48 71.8h6v6h-6zM96 71.8h6v6h-6zM72.1 71.8h6v6h-6zM119.9 71.8h6v6h-6zM144 71.8h6v6h-6zM167.9 71.8h6v6h-6zM191.8 71.8h6v6h-6zM239.8 71.8h6v6h-6zM215.9 71.8h6v6h-6zM.3 95.8h6v6h-6zM24.1 95.8h6v6h-6zM48 95.8h6v6h-6zM96 95.8h6v6h-6zM72.1 95.8h6v6h-6zM119.9 95.8h6v6h-6zM144 95.8h6v6h-6zM167.9 95.8h6v6h-6zM191.8 95.8h6v6h-6zM239.8 95.8h6v6h-6zM215.9 95.8h6v6h-6zM.3 119.6h6v6h-6zM24.1 119.6h6v6h-6zM48 119.6h6v6h-6zM96 119.6h6v6h-6zM72.1 119.6h6v6h-6zM119.9 119.6h6v6h-6zM144 119.6h6v6h-6zM167.9 119.6h6v6h-6zM191.8 119.6h6v6h-6zM239.8 119.6h6v6h-6zM215.9 119.6h6v6h-6zM.3 144h6v6h-6zM24.1 144h6v6h-6zM48 144h6v6h-6zM96 144h6v6h-6zM72.1 144h6v6h-6zM119.9 144h6v6h-6zM144 144h6v6h-6zM167.9 144h6v6h-6zM191.8 144h6v6h-6zM239.8 144h6v6h-6zM215.9 144h6v6h-6zM.3 167.9h6v6h-6zM24.1 167.9h6v6h-6zM48 167.9h6v6h-6zM96 167.9h6v6h-6zM72.1 167.9h6v6h-6zM119.9 167.9h6v6h-6zM144 167.9h6v6h-6zM167.9 167.9h6v6h-6zM191.8 167.9h6v6h-6zM239.8 167.9h6v6h-6zM215.9 167.9h6v6h-6zM.3 191.8h6v6h-6zM24.1 191.8h6v6h-6zM48 191.8h6v6h-6zM96 191.8h6v6h-6zM72.1 191.8h6v6h-6zM119.9 191.8h6v6h-6zM144 191.8h6v6h-6zM167.9 191.8h6v6h-6zM191.8 191.8h6v6h-6zM239.8 191.8h6v6h-6zM215.9 191.8h6v6h-6zM.3 215.7h6v6h-6zM24.1 215.7h6v6h-6zM48 215.7h6v6h-6zM96 215.7h6v6h-6zM72.1 215.7h6v6h-6zM119.9 215.7h6v6h-6zM144 215.7h6v6h-6zM167.9 215.7h6v6h-6zM191.8 215.7h6v6h-6zM239.8 215.7h6v6h-6zM215.9 215.7h6v6h-6zM.3 239.6h6v6h-6zM24.1 239.6h6v6h-6zM48 239.6h6v6h-6zM96 239.6h6v6h-6zM72.1 239.6h6v6h-6zM119.9 239.6h6v6h-6zM144 239.6h6v6h-6zM167.9 239.6h6v6h-6zM191.8 239.6h6v6h-6zM239.8 239.6h6v6h-6zM215.9 239.6h6v6h-6z"/></g></svg>