<?xml version="1.0" encoding="UTF-8" standalone="no"?><!DOCTYPE svg PUBLIC "-//W3C//DTD SVG 1.1//EN" "http://www.w3.org/Graphics/SVG/1.1/DTD/svg11.dtd"><svg width="100%" height="100%" viewBox="0 0 117 133" version="1.1" xmlns="http://www.w3.org/2000/svg" xmlns:xlink="http://www.w3.org/1999/xlink" xml:space="preserve" xmlns:serif="http://www.serif.com/" style="fill-rule:evenodd;clip-rule:evenodd;stroke-linejoin:round;stroke-miterlimit:1.41421;"><path d="M9.763,127.05l0,3.97c-1.085,0.814 -2.715,1.372 -4.179,1.372c-3.156,0 -5.584,-2.338 -5.584,-5.372c0,-3.035 2.474,-5.342 5.704,-5.342c1.525,0 3.079,0.588 4.135,1.509l-1.146,1.478c-0.799,-0.74 -1.917,-1.193 -2.989,-1.193c-2.038,0 -3.638,1.555 -3.638,3.548c0,2.008 1.615,3.563 3.654,3.563c0.724,0 1.555,-0.257 2.279,-0.665l0,-2.868l1.764,0Zm106.06,-3.306l0.513,-1.072c-0.874,-0.587 -2.127,-0.979 -3.35,-0.979c-2.19,0 -3.652,1.055 -3.652,2.715c0,3.789 5.947,2.295 5.932,5.118c0,1.026 -0.952,1.645 -2.477,1.645c-1.192,0 -2.536,-0.543 -3.515,-1.479l-0.544,1.041c0.996,0.951 2.504,1.614 4.044,1.614c2.265,0 3.818,-1.131 3.818,-2.882c0.015,-3.834 -5.932,-2.4 -5.932,-5.148c0,-0.905 0.891,-1.449 2.25,-1.449c0.846,0 1.963,0.257 2.913,0.876Zm-31.002,-2.006l0,10.563l-1.205,0l0,-10.563l1.205,0Zm-55.301,0l0,1.794l-3.29,0l0,8.769l-2.036,0l0,-8.769l-3.29,0l0,-1.794l8.616,0Zm2.943,4.785l6.371,0l0,-4.785l1.206,0l0,10.563l-1.206,0l0,-4.679l-6.371,0l0,4.679l-1.205,0l0,-10.563l1.205,0l0,4.785Zm63.151,3.801l0,-8.586l1.191,0l0,10.563l-1.236,0l-6.341,-8.571l0,8.571l-1.205,0l0,-10.563l1.251,0l6.34,8.586Zm-38.095,-8.586l4.723,10.563l-1.313,0l-1.192,-2.701l-5.75,0l-1.177,2.701l-1.282,0l4.738,-10.563l1.253,0Zm19.499,0l0,9.448l4.634,0l0,1.115l-5.84,0l0,-10.563l1.206,0Zm-26.609,0l0,1.115l-5.962,0l0,3.549l5.328,0l0,1.1l-5.328,0l0,3.684l6.158,0l0,1.115l-7.363,0l0,-10.563l7.167,0Zm56.78,0l0,1.115l-5.962,0l0,3.549l5.328,0l0,1.1l-5.328,0l0,3.684l6.158,0l0,1.115l-7.363,0l0,-10.563l7.167,0Zm-87.344,0l0,1.764l-5.72,0l0,2.613l5.132,0l0,1.764l-5.132,0l0,2.658l5.902,0l0,1.764l-7.922,0l0,-10.563l7.74,0Zm48.329,0c3.08,0 5.433,2.277 5.433,5.282c0,3.004 -2.368,5.281 -5.478,5.281l-4.225,0l0,-10.563l4.27,0Zm0.015,9.448c2.355,0 4.197,-1.781 4.197,-4.151c0,-2.385 -1.872,-4.182 -4.242,-4.182l-3.034,0l0,8.333l3.079,0Zm-8.935,-2.701l-2.399,-5.436l-2.37,5.436l4.769,0Z" style="fill-rule:nonzero;"/><path d="M66.044,2.621l33.21,19.133c3.787,2.186 6.119,6.226 6.119,10.598c0,10.423 0,29.807 0,40.229c0,4.372 -2.332,8.412 -6.119,10.599c-9.026,5.211 -25.813,14.903 -34.839,20.114c-3.786,2.186 -8.452,2.186 -12.238,0c-9.026,-5.211 -25.813,-14.903 -34.839,-20.114c-3.787,-2.187 -6.119,-6.227 -6.119,-10.599c0,-10.422 0,-29.806 0,-40.229c0,-4.372 2.332,-8.412 6.119,-10.598c9.026,-5.211 25.813,-14.903 34.839,-20.114c3.786,-2.187 8.452,-2.187 12.238,0c0,0 0.479,0.276 1.189,0.686c0.154,0.089 0.301,0.188 0.44,0.295Zm-5.302,12.221c-1.505,-0.869 -3.36,-0.871 -4.866,-0.004c-10.651,6.13 -23.416,13.478 -27.016,15.556c-2.721,1.571 -4.397,4.475 -4.397,7.617c0,7.49 0,21.421 0,28.912c0,3.142 1.676,6.045 4.397,7.616c6.487,3.746 18.551,10.711 25.038,14.456c2.722,1.571 6.074,1.571 8.796,0c6.486,-3.745 18.551,-10.71 25.038,-14.456c2.721,-1.571 4.397,-4.474 4.397,-7.616c0,-7.491 0,-21.422 0,-28.912c0,-2.915 -1.442,-5.624 -3.823,-7.255l-3.239,-1.87c-2.26,-1.067 -4.915,-0.969 -7.102,0.294c-6.088,3.515 -17.96,10.37 -24.627,14.219c-1.009,0.582 -1.635,1.655 -1.644,2.82c-0.01,1.166 0.598,2.249 1.597,2.848c1.069,0.642 2.144,1.287 3.023,1.814c1.235,0.741 2.762,0.8 4.05,0.157c5.44,-2.712 19.753,-11.038 19.753,-11.038c0.195,0.58 0.276,2.395 0.276,3.025c0,4.893 0,13.991 0,18.883c0,2.052 -1.095,3.949 -2.872,4.975c-4.237,2.446 -12.116,6.995 -16.353,9.441c-1.777,1.026 -3.967,1.026 -5.744,0c-4.237,-2.446 -12.116,-6.995 -16.353,-9.441c-1.777,-1.026 -2.872,-2.923 -2.872,-4.975c0,-4.892 0,-13.99 0,-18.883c0,-2.052 1.095,-3.948 2.872,-4.974c2.27,-1.311 14.826,-8.531 25.991,-14.952c1.031,-0.592 1.666,-1.69 1.667,-2.878c0.001,-1.189 -0.632,-2.288 -1.662,-2.882c-1.497,-0.864 -3.072,-1.774 -4.325,-2.497Z" style="fill:url(#_Linear1);"/><defs><linearGradient id="_Linear1" x1="0" y1="0" x2="1" y2="0" gradientUnits="userSpaceOnUse" gradientTransform="matrix(94.1543,104.934,-104.934,94.1543,11.2188,0)"><stop offset="0" style="stop-color:#f7058d;stop-opacity:1"/><stop offset="1" style="stop-color:#07b0eb;stop-opacity:1"/></linearGradient></defs></svg>